<?xml version="1.0" encoding="UTF-8"?> <svg xmlns="http://www.w3.org/2000/svg" xmlns:xlink="http://www.w3.org/1999/xlink" version="1.1" id="レイヤー_1" x="0px" y="0px" viewBox="0 0 300.5 47.8" style="enable-background:new 0 0 300.5 47.8;" xml:space="preserve"> <style type="text/css"> .st0{fill:#007DB4;} .st1{fill:#81A2CA;} </style> <g> <path class="st0" d="M42,47.6h1.4l0.1-9.1H42V47.6z M29.5,38.3c-2.5,0-4,2.1-4,4.7s1.5,4.7,3.9,4.8c2.5,0,4-2.1,4-4.7 C33.4,40.5,31.9,38.3,29.5,38.3z M29.4,46.5c-1.8,0-2.5-1.7-2.5-3.5c0-1.7,0.8-3.4,2.5-3.4c1.8,0,2.5,1.7,2.5,3.5 C31.9,44.8,31.2,46.5,29.4,46.5z M36.2,43.6h4.2v-1.3h-4.2v-2.4h4.5v-1.4h-6v9.1h6.1v-1.4h-4.6V43.6z M22.7,42.1h-3.8v-3.6h-1.5 v9.1h1.5v-4.1h3.8v4.1h1.5v-9.1h-1.5V42.1z M14.6,42.6c-0.4-0.1-2.3-0.7-2.4-0.7c-0.6-0.2-1-0.5-1-1.2c0-0.9,0.9-1.2,1.5-1.2 c1,0,1.7,0.4,1.8,1.6H16c0-1.9-1.4-2.9-3.2-2.9c-1.5,0-3,0.8-3,2.6c0,0.9,0.4,1.9,1.8,2.3c1.1,0.4,1.9,0.5,2.5,0.8 c0.3,0.1,0.7,0.4,0.7,1.1s-0.5,1.4-1.8,1.4c-1.2,0-2.1-0.6-2.1-2H9.4c0,2.2,1.6,3.2,3.4,3.2c1.6,0,3.3-0.8,3.3-2.8 C16.2,43.9,15.7,42.9,14.6,42.6z M100.1,3.1v4.1h7v31.9c0,1.1-0.9,1.9-1.9,1.9h-4.3v4.8h9.5c2.3,0,4.2-1.9,4.2-4.2V7.2V3.1h-7.5 L100.1,3.1L100.1,3.1z M71.7,0.8h-8v8.5h8V0.8z M84.2,3.2v4.1h7v31.9c0,1.1-0.9,1.9-1.9,1.9H85v4.8h9.5c2.3,0,4.2-1.9,4.2-4.2V7.3 V3.2h-7.5L84.2,3.2L84.2,3.2z M105.6,10.8h-5.5v8.3h5.5V10.8z M89.7,10.8h-5.5v8.3h5.5V10.8z M76.7,23.7h5.4v-4.1h-5.4v-4.2h6.4 v-4.2h-4.6c2.8-4,4.7-7.4,4.7-7.4l-6.5-2.9c-2.1,6.3-4,9.1-5.1,10.3H61.1v4.2h8.5v4.2h-7.2v4.1h7.2v4.1h-8.5V32h7.8 c-1.2,4.8-3.7,8.2-5.9,11l3.1,4.3C72.8,43,75.4,36.6,76.2,32h4c1-1.5,2-2.9,3.4-4.2h-6.8L76.7,23.7L76.7,23.7z M138.4,0.7h-7.5v6.9 h7.5V0.7z M153.8,0.7h-7.5v6.9h7.5V0.7z M131,13.9h39.1v5.3h7.1v-5.3V9.7h-7.1H165c1.9-1.9,4.4-4.7,5.6-7.3l-7.5-2.3 c-2,4.6-4.2,7.8-5.6,9.5h-26.6h-7.1v4.2v5.3h7.1v-5.2H131z M177.2,25.4v-4.2h-23.6v-4.5h-7.3v4.5h-22.5v4.2h18.9 c-3.5,3.2-9.6,7.6-19.5,12l2.4,6.4c10-4.4,16.5-8.9,20.7-12.5v14.5h7.3v-16c3.7,3.8,10.6,9.6,21.5,14.5l2.4-6.4 c-9.4-4.4-15.4-9.3-18.7-12.6h18.4V25.4z M215,0.7h-7.5v6.9h7.5V0.7z M226.3,9.6c1.9-1.9,4.4-4.7,5.6-7.3L224.4,0 c-2,4.6-4.2,7.8-5.6,9.5h-26.6h-7.1v4.2V19h7.1v-5.3h39.2V19h7.1v-5.3V9.5h-7.1h-5.1V9.6z M199.7,0.7h-7.5v6.9h7.5V0.7z M216.7,27.5c3.3-1,8.5-3.3,11.6-6.4v-4.5h-33.1v4.5h21.2c-4.1,3.4-7.2,3.9-7.2,3.9v3.3h-24.1v4.2h24.1v8.1h-8.6v5.1h8.6h2.3h1.3 c2.2,0,4-1.8,4-4v-9.2h21.8v-4.2h-21.8L216.7,27.5L216.7,27.5z M270.2,17.6h25.2v-4h5.1V7.8V3h-7.2H287V0.4h-8V3h-5.7h-7.2v4.8v5.8 h4.1V17.6z M273.3,7.8h20v5.4h-20V7.8z M260.1,16.5c3.5-4.6,4.7-9.5,4.7-9.5V5.8l0,0V1.4h-10.4h-7.2v4.4v40h7.2V30.6l1.6,3.5 c4.1,0,8.9-3.4,9.1-10.1C265.1,21.5,263.8,18.5,260.1,16.5z M254.4,29.6V18.5l0,0c1.7,1.2,3.6,2.9,3.6,5.7 C258,25.6,256.8,27.9,254.4,29.6z M254.4,17.6V5.7h5C257.6,10.4,255.3,15.6,254.4,17.6z M300.5,25.6V21h-34.4v4.6h6.8 c-0.3,4.3-2.2,11.5-10.3,15.8l1.8,4.6c9.4-3.4,15-11.1,15.5-20.4h2.5v15.9c0,2.3,1.9,4.2,4.2,4.2h3.1h2.7c4.4,0,8.1-4.4,8.1-8.1 h-8.1v1.7c0,0.7-0.6,1.4-1.4,1.4c-0.7,0-1.4-0.6-1.4-1.4V25.5L300.5,25.6L300.5,25.6z M51.6,2H38.5c-2.1,0-4,1.2-4.9,3l-6.9,14.1 C26.5,19,26.2,19,26,19c-0.3,0-0.5,0-0.7,0.1L18.4,5c-0.9-1.9-2.8-3-4.9-3H0.4C0,2-0.1,2.4,0.1,2.7l23.1,20.2l-1.5,9.3l4.2,3.5 l4.2-3.5l-1.5-9.3L51.7,2.7C52.1,2.4,52,2,51.6,2z M3,3.9l10.1,4.6L21.4,20L3,3.9z M22.7,31.9l1.1-6.7l1.6,9L22.7,31.9z M24,21.7 c0-1.1,0.9-2,2-2s2,0.9,2,2s-0.9,2-2,2S24,22.8,24,21.7z M29.4,31.9l-2.7,2.3l1.6-9L29.4,31.9z M30.7,20.1L39,8.6L49.1,4L30.7,20.1 z"></path> <g> <path class="st1" d="M95.3,21.8C79,27.6,81.7,34.9,71.7,44.7c-0.1,0.1,0,0.2,0.1,0.2c1.4-0.4,6.7-2.1,10.6-6.3 c5.2-5.5,6.3-11.1,12.9-16.6C95.5,21.9,95.4,21.8,95.3,21.8z"></path> <path class="st1" d="M117.3,16.4c-16.3,5.8-13.6,13.1-23.6,22.9c-0.1,0.1,0,0.2,0.1,0.2c1.4-0.4,6.7-2.1,10.6-6.3 c5.2-5.5,6.3-11.1,12.9-16.6C117.4,16.4,117.4,16.3,117.3,16.4z"></path> </g> </g> </svg> 